<?xml version="1.0" encoding="utf-8"?>
<!-- Generator: Adobe Illustrator 26.0.0, SVG Export Plug-In . SVG Version: 6.00 Build 0)  -->
<svg version="1.1" id="Layer_1" xmlns="http://www.w3.org/2000/svg" xmlns:xlink="http://www.w3.org/1999/xlink" x="0px" y="0px"
	 viewBox="0 0 595.28 841.89" style="enable-background:new 0 0 595.28 841.89;" xml:space="preserve">
<g>
	<path d="M243.98,354.75c0.03-1.48,0.05-2.96,0.08-4.44c0-0.04,0.05-0.08,0.19-0.27c35.92,0,71.94,0,108.21,0
		c-2.35-7.08-2.83-14.57-7.45-20.61c-4.89-6.37-11.4-9.72-19.38-10.18c-0.77-0.05-1.6,0.53-2.38,0.87
		c-2.76,1.23-3.67,3.03-3.48,6.32c0.38,6.52-3.17,11.46-8.24,15.23c-6.78,5.04-14.52,6.65-22.82,5.73
		c-6.77-0.75-12.8-3.21-17.66-8.11c-4.05-4.09-6.17-8.97-5.59-14.84c0.03-0.33-0.24-0.84-0.52-1.02c-2.56-1.66-5.16-3.27-7.91-4.99
		c-0.55,0.38-1.26,0.86-1.81,1.24c1.39,2.83,2.83,5.47,3.98,8.22c0.62,1.47,0.95,3.13,1.04,4.73c0.35,5.71-3.41,8.89-9.18,7.75
		c-2.15-0.43-4.24-1.23-6.49-1.91c-1.86,4.92-5.26,8.72-10.33,10.87c-3.49,1.48-7.14,1.9-10.87,1.08
		c-8.17-1.79-13.91-7.96-14.89-16.18c-0.85-7.22,2.62-15.85,12.28-19.72c-0.6-1.75-1.33-3.47-1.79-5.26
		c-1.91-7.37,2.63-12.01,9.98-9.95c3.04,0.85,5.85,2.52,8.75,3.83c0.44,0.2,0.84,0.49,1.4,0.82c0.87-1.39,1.73-2.7,2.51-4.06
		c0.16-0.27,0.12-0.74,0-1.06c-1.54-4.19-3.1-8.37-4.75-12.8c-3.5,0.23-6.89-0.91-9.43-4.03c-1.65-2.03-2.45-4.4-2.36-7
		c0.21-6.13,4.29-9.64,11.95-10.43c0.84-2.83,1.5-5.73,2.55-8.47c6.59-17.17,18.67-28.56,36.21-34.16c0.91-0.29,1.91-0.96,2.4-1.74
		c1.56-2.45,2.87-5.05,4.32-7.57c1.15-2.01,2.3-4.02,3.53-5.98c0.47-0.74,1.09-1.41,1.74-2.01c2.42-2.23,5.24-2.3,7.47,0.12
		c1.58,1.72,2.86,3.76,4.06,5.79c1.71,2.88,3.22,5.88,4.83,8.82c0.79,1.44,1.95,2.24,3.58,2.8c20.4,6.91,33.04,20.91,37.92,41.89
		c0.03,0.14,0.07,0.28,0.15,0.57c3.98-0.19,7.44,1,9.94,4.32c1.68,2.23,2.26,4.76,2.06,7.53c-0.39,5.57-4.68,9.03-12.13,9.61
		c-2.39,11.02-7.6,20.58-15.89,28.69c0.69,0.18,1.18,0.3,1.66,0.42c11.62,3.07,19.13,10.38,22.46,21.91
		c1.33,4.59,2.43,9.24,3.71,13.84c0.46,1.64,0.19,2.9-1.3,3.81C318.88,354.75,281.43,354.75,243.98,354.75z M261.97,315.87
		c0.8,0.56,1.31,0.93,1.85,1.27c11.3,7.21,23.55,9.81,36.78,7.44c26.94-4.82,45.4-30.79,40.61-57.72
		c-3.62-20.36-15.67-33.75-35.31-40.23c-2.13-0.7-3.83-1.76-5.03-3.62c-0.91-1.41-1.79-2.83-2.61-4.29
		c-1.59-2.84-3.1-5.72-4.72-8.54c-0.52-0.9-1.29-1.66-2.13-2.73c-0.87,1.19-1.63,2.03-2.17,3c-1.67,2.96-3.3,5.95-4.88,8.96
		c-1.99,3.79-4.61,6.36-8.99,7.84c-24.19,8.17-38.03,32.04-33.43,57.14c0.58,3.14,1.63,6.19,2.47,9.28c0.63-0.52,0.84-0.96,1.07-1.4
		c3.05-5.92,9.71-9.47,16.09-8.57c7.25,1.03,13.02,6.63,13.84,13.45c0.93,7.78-2.9,14.37-10.04,17.28
		C264.32,314.86,263.29,315.31,261.97,315.87z M237.7,313.46c1.87,3.08,4.28,5.56,7.23,7.55c0.71,0.48,1.08,0.25,1.62-0.24
		c1.63-1.5,3.27-3.01,5.02-4.36c3.61-2.8,7.67-4.77,11.92-6.41c7.29-2.82,9.61-11.71,4.66-17.55c-5.41-6.38-15.41-4.93-18.78,2.8
		c-2.14,4.9-4.69,9.54-7.99,13.76C240.21,310.5,238.95,311.95,237.7,313.46z M315.11,324.98c-14.94,6.67-29.82,6.95-44.84,1.03
		c-0.15,4.62,2.31,9.03,6.64,12.09c8.99,6.36,22.52,6.41,31.49,0.01C312.78,334.99,315.45,330.87,315.11,324.98z M251.25,322.86
		c-1.08,1.08-2.07,2.03-3.02,3.02c-1.03,1.07-2.12,1.27-3.46,0.56c-5.2-2.78-9.19-6.75-11.97-11.95c-0.69-1.29-0.56-2.42,0.5-3.49
		c0.99-0.99,1.89-2.07,3.01-3.31c-2.15-1.09-3.98-2.17-5.93-2.97c-1.39-0.57-2.92-0.9-4.42-1.06c-1.86-0.2-2.71,0.67-2.54,2.54
		c0.12,1.31,0.35,2.67,0.88,3.86c4.72,10.57,12.51,18.31,22.57,23.82c1.65,0.9,3.56,1.46,5.42,1.83c2.48,0.5,3.52-0.51,3.23-2.97
		C255.1,329.09,253.34,325.97,251.25,322.86z M225.42,321.69c-0.39-0.57-0.75-0.98-0.97-1.45c-0.64-1.37-1.49-1.44-2.82-0.86
		c-5.45,2.36-8.95,8-8.46,13.84c0.52,6.13,4.82,11.05,10.9,12.47c5.71,1.33,11.83-1.32,14.86-6.44c1.88-3.17,1.8-3.5-1.35-5.39
		c-2.94,6.9-6.86,9.65-12.39,8.67c-4.9-0.87-8.59-5.17-8.72-10.17C216.35,327.27,219.76,323.13,225.42,321.69z M221.36,332.15
		c0.01,3.22,2.55,5.74,5.74,5.69c3.13-0.04,5.63-2.55,5.64-5.66c0.02-3.19-2.54-5.8-5.67-5.77
		C223.86,326.44,221.35,328.96,221.36,332.15z M236.4,281.19c0-3.97,0-7.83,0-11.68c-3.58-0.3-6.43,2.27-6.46,5.76
		C229.91,278.82,232.68,281.37,236.4,281.19z M346.65,281.27c2.46-0.03,4.45-0.89,5.66-3.08c1.16-2.08,1.05-4.19-0.28-6.16
		c-1.28-1.9-3.13-2.7-5.39-2.59C346.65,273.39,346.65,277.22,346.65,281.27z"/>
	<path d="M273.82,314.15c0.72-1.4,1.41-2.74,1.97-3.83c3.5,0.96,6.79,2.25,10.2,2.73c9.93,1.39,19.18-0.27,26.86-7.3
		c2.26-2.06,3.78-4.63,4.43-7.86c-13.37,0-26.61,0-39.96,0c0-1.64,0-3.14,0-4.78c0.53,0,1.01,0,1.49,0c13.48,0,26.96,0,40.44,0
		c2.35,0,3.16,0.8,3.04,3.11c-0.36,6.94-4.08,11.93-9.51,15.74c-7.6,5.34-16.21,6.92-25.32,6.16c-4.41-0.37-8.62-1.56-12.62-3.43
		C274.51,314.56,274.23,314.38,273.82,314.15z"/>
	<path d="M275.25,274.15c-0.56,1.89-0.86,3.76-1.65,5.4c-1.13,2.34-3.28,2.35-4.49,0.08c-1.92-3.63-1.92-7.39,0.03-11.01
		c1.19-2.21,3.29-2.21,4.4,0.05C274.35,270.34,274.68,272.26,275.25,274.15z"/>
	<path d="M315.57,274.21c-0.58,1.9-0.92,3.81-1.75,5.48c-1.08,2.17-3.17,2.16-4.33,0.03c-2.01-3.66-2-7.47-0.02-11.13
		c1.19-2.2,3.3-2.18,4.4,0.09C314.67,270.36,314.99,272.28,315.57,274.21z"/>
	<path d="M274.95,233.91c1.58,0,3.04,0,4.6,0c0,4.68,0,9.3,0,14.03c-1.48,0-2.98,0-4.6,0C274.95,243.33,274.95,238.68,274.95,233.91
		z"/>
	<path d="M293.75,248c-1.57,0-3.04,0-4.59,0c0-4.68,0-9.29,0-14.03c1.47,0,2.96,0,4.59,0C293.75,238.58,293.75,243.22,293.75,248z"
		/>
	<path d="M303.34,247.97c0-4.73,0-9.31,0-14.01c1.53,0,3.02,0,4.64,0c0,4.62,0,9.27,0,14.01
		C306.47,247.97,304.97,247.97,303.34,247.97z"/>
	<path d="M259.4,290.88c0,1.45,0,2.91,0,4.5c-1.88,0.42-3.32,1.4-3.45,3.59c-1.64,0-3.15,0-4.66,0
		C250.93,294.68,255.15,290.46,259.4,290.88z"/>
</g>
</svg>
