<?xml version="1.0" encoding="utf-8"?>
<!-- Generator: Adobe Illustrator 26.0.0, SVG Export Plug-In . SVG Version: 6.00 Build 0)  -->
<svg version="1.1" id="Layer_1" xmlns="http://www.w3.org/2000/svg" xmlns:xlink="http://www.w3.org/1999/xlink" x="0px" y="0px"
	 viewBox="0 0 595.28 841.89" style="enable-background:new 0 0 595.28 841.89;" xml:space="preserve">
<g>
	<path d="M501.09,371.2c-1.55,7.29-5.82,13.08-10.17,18.88c-7.04,9.37-13.92,18.86-20.9,28.28c-3.65,4.92-6.64,5.11-11.01,0.75
		c-2.36-2.36-4.64-4.8-6.99-7.25c-2.38,2.4-4.36,4.39-6.89,6.94c1.45,1.2,2.99,2.26,4.28,3.58c19.8,20.26,23.25,52.38,8.23,76.28
		c-2.47,3.92-6.07,5.01-8.99,2.7c-2.56-2.01-2.89-4.78-0.69-8.35c6.17-10.02,8.5-20.87,7.53-32.55
		c-1.03-12.43-8.31-26.23-18.11-33.83c-2.48,2.65-4.98,5.31-7.51,8.01c10.21,8.89,15.53,20.25,14.44,34.18
		c-1.11,14.23-8.13,24.89-20.45,31.98c-2.21,1.27-3.61,2.44-3.84,5.25c-0.25,2.93-1.43,5.77-2.33,9.09c1.16-0.26,2.24-0.3,3.14-0.73
		c4.05-1.9,8.08-3.84,12.05-5.9c3.43-1.79,6.42-1.37,8.23,1.41c1.8,2.74,1.01,5.9-2.15,8.02c-7.57,5.07-15.85,8.4-24.88,9.65
		c-3.65,0.51-6.63,1.8-9.78,3.85c-4.72,3.07-10.06,5.38-15.41,7.23c-2.7,0.93-3.45,1.9-3.42,4.55c0.11,13.22,0.2,26.45,0,39.67
		c-0.18,12.25-10.77,20.17-21.83,16.57c-4.21-1.37-7.34-4.1-9.54-7.94c-1.99-3.48-8.17-3.41-10.22,0.06
		c-6.89,11.71-22.38,11.63-29.34-0.15c-1.92-3.25-8.16-3.3-10.07-0.09c-7.12,11.99-22.4,11.99-29.51-0.01
		c-1.9-3.21-8.12-3.15-10.04,0.1c-4.04,6.83-11.24,10.16-18.34,8.48c-7.69-1.82-12.72-7.88-13.05-16.17
		c-0.22-5.61-0.18-11.23-0.02-16.84c0.07-2.45-0.67-3.71-3-4.76c-14.18-6.36-23.3-17.15-27.27-32.19c-0.52-1.96-1.35-2.74-3.32-3.3
		c-26.25-7.43-42.5-24.47-47.07-51.42c-3.42-20.16,2.72-37.95,16.74-52.92c0.6-0.64,1.22-1.25,1.86-1.85
		c0.64-0.59,1.32-1.13,2.32-1.99c-1.19-1.25-2.2-2.27-3.15-3.34c-0.91-1.03-1.75-2.12-2.99-3.64c-2.94,2.93-5.44,5.46-7.98,7.94
		c-4.04,3.94-7.13,3.73-10.52-0.84c-8.54-11.52-17.1-23.02-25.52-34.63c-8.67-11.95-7.55-26.25,2.84-36.74
		c13-13.11,26.09-26.13,39.16-39.18c3.2-3.2,6.28-3.55,8.83-1.13c2.66,2.52,2.35,5.77-0.97,9.1c-12.69,12.72-25.4,25.41-38.1,38.11
		c-7.78,7.78-8.37,15.46-1.87,24.35c2.49,3.4,5.01,6.78,7.31,9.89c31.08-31.09,61.99-62,93.21-93.22c-4.51-3.16-9.16-6.96-14.3-9.88
		c-5.93-3.37-13.16-1.97-18.32,2.89c-3.45,3.25-6.7,6.71-10.09,10.02c-3.17,3.1-6.37,3.33-8.84,0.75c-2.39-2.49-2.13-5.54,0.84-8.56
		c3.5-3.56,6.98-7.14,10.62-10.55c9.43-8.8,23.2-10.26,33.77-2.91c12.69,8.82,25.01,18.18,37.41,27.41c3.36,2.5,3.53,5.91,0.57,9.02
		c-2.57,2.71-5.38,5.19-8.33,8.01c0.95,1.1,1.59,1.95,2.34,2.7c11.28,11.3,22.54,22.62,33.93,33.81c1.17,1.15,3.14,2.05,4.77,2.1
		c7.48,0.22,14.97,0.15,22.45,0.04c1.24-0.02,2.82-0.4,3.65-1.22c12.32-12.18,24.55-24.45,37.64-37.55
		c-2.81-2.48-5.61-4.72-8.15-7.23c-3.9-3.85-3.67-7.03,0.66-10.24c11.61-8.62,23.21-17.27,34.92-25.76
		c11.81-8.56,26.11-7.56,36.46,2.72c22.31,22.15,44.46,44.45,66.73,66.64c4.4,4.39,6.69,9.8,8.37,15.6
		C501.09,365.71,501.09,368.46,501.09,371.2z M225.88,474.92c1.35-1.25,2.37-2.13,3.33-3.07c18.82-18.39,37.61-36.8,56.44-55.18
		c13.4-13.08,29.11-14.26,44.24-3.33c21.21,15.34,42.4,30.7,63.61,46.04c1.14,0.83,2.34,1.59,3.74,2.54
		c1.17-3.61,2.06-6.72,3.2-9.73c0.76-2.01,0.45-3.35-1.13-4.92c-24.74-24.63-49.4-49.36-74.16-73.97c-1.09-1.08-2.96-1.87-4.48-1.91
		c-7.48-0.19-14.96-0.16-22.44-0.02c-1.34,0.02-3.02,0.55-3.93,1.46c-25.02,24.89-49.97,49.84-74.87,74.85
		c-0.74,0.74-1.46,2.26-1.2,3.12C220.59,458.73,223.2,466.6,225.88,474.92z M477.9,388.74c2.7-3.66,5.3-7.15,7.86-10.66
		c6.03-8.28,5.46-16.27-1.73-23.5c-9.23-9.28-18.5-18.52-27.75-27.78c-12.51-12.52-25.05-25.02-37.54-37.55
		c-4.88-4.9-10.85-7.57-17.26-4.71c-6.08,2.71-11.43,7.07-17.01,10.65C415.95,326.71,446.76,357.56,477.9,388.74z M341.42,435.74
		c-1.79,19.23-11.41,31.03-26.88,33.35c-9.04,1.35-17.36-0.66-24.62-6.35c-7.14-5.59-10.97-13.15-12.92-22.5
		c-5.34,4.83-10.07,9.96-14.82,15.06c-4.77,5.13-9.58,10.24-14.28,15.27c13.9-0.41,26.07,4.42,35.99,14.58
		c9.92,10.15,14.04,22.6,13.57,37.32c1.41-1.28,2.32-2.05,3.16-2.88c14.24-13.97,28.54-27.88,42.68-41.95
		c8.44-8.4,16.71-16.91,30.14-18.84C362.4,450.85,352.14,443.47,341.42,435.74z M249.81,481.84c-20.25-0.12-36.76,16.13-36.88,36.29
		c-0.12,20.14,16.15,36.62,36.39,36.87c20.01,0.24,36.76-16.27,36.89-36.37C286.34,498.45,270.03,481.96,249.81,481.84z
		 M176.02,403.79c11.65,11.66,23.53,23.53,34.88,34.88c24.4-24.4,49.03-49.01,73.33-73.31c-11.41-11.46-23.18-23.28-34.4-34.56
		c-2.69,2.56-5.51,5.24-8.62,8.19c5.1,4.99,10.49,10,15.57,15.31c4.6,4.81,5.92,10.64,3.62,16.96c-2.29,6.29-6.97,9.93-13.59,10.79
		c-5.58,0.73-10.25-1.34-14.16-5.29c-4.96-5.02-9.95-10.02-14.5-14.6c-3.66,3.67-6.96,6.98-10.61,10.63
		c4.78,4.66,9.89,9.58,14.93,14.57c3.95,3.91,5.89,8.67,5.06,14.24c-0.98,6.61-4.72,11.24-11.04,13.41
		c-6.34,2.18-12.13,0.72-16.91-3.92c-5.25-5.11-10.29-10.44-15.48-15.73C181.08,398.52,178.43,401.28,176.02,403.79z M334.42,365.71
		c24.31,24.31,48.88,48.89,73.33,73.33c11.62-11.68,23.45-23.59,35.08-35.28c-2.33-2.46-4.95-5.23-7.74-8.17
		c-1.03,0.96-2.03,1.85-2.98,2.79c-4.34,4.31-8.53,8.76-13.01,12.91c-7.22,6.68-17.75,6.05-23.97-1.22
		c-5.61-6.56-5.27-15.89,1.02-22.39c5.08-5.26,10.37-10.32,15.06-14.98c-3.6-3.8-6.82-7.19-10.26-10.83
		c-4.94,5-9.91,10.07-14.92,15.1c-3.83,3.84-8.44,5.78-13.87,5.09c-6.63-0.84-11.33-4.47-13.63-10.75
		c-2.37-6.47-0.91-12.34,3.81-17.25c5.08-5.28,10.37-10.36,15.64-15.6c-3.01-2.96-5.73-5.63-8.25-8.1
		C357.92,342.18,346.05,354.07,334.42,365.71z M379.8,528.56c16.43,0.02,29.82-13.37,29.68-29.67
		c-0.14-16.23-13.41-29.46-29.58-29.51c-16.3-0.04-29.7,13.43-29.62,29.78C350.37,515.47,363.49,528.54,379.8,528.56z
		 M154.75,407.33c32.81-32.79,65.41-65.37,98.13-98.08c-2.82-2.08-5.9-4.34-8.55-6.3c-32.05,32.01-63.87,63.79-95.93,95.81
		C150.45,401.52,152.71,404.58,154.75,407.33z M470.46,398.86c-32.16-32.16-63.96-63.96-95.9-95.9c-2.71,2.01-5.76,4.28-8.33,6.19
		c32.78,32.78,65.36,65.37,98.04,98.05C466.23,404.55,468.45,401.57,470.46,398.86z M309.61,458.21
		c11.36-0.07,20.35-9.14,20.31-20.51c-0.03-11.34-9.1-20.41-20.43-20.44c-11.46-0.03-20.62,9.24-20.5,20.74
		C289.13,449.37,298.21,458.28,309.61,458.21z M203.53,504.59c-15.04-5.29-25.05-15.17-28.2-30.85
		c-3.17-15.76,2.1-28.89,13.94-39.36c-2.63-2.7-5.11-5.25-7.58-7.78c-14.29,10.35-21.58,32.02-17.21,50.82
		c4.32,18.57,20.33,34.92,37.09,37.77C202.21,511.79,202.84,508.38,203.53,504.59z M197.47,442.46
		c-9.04,7.07-13.06,16.33-11.42,27.58c1.58,10.8,7.85,18.34,17.93,22.56c1.45,0.61,4.49,1,4.63,0.65c1.76-4.49,8-6.22,7.44-12.03
		c-0.05-0.49-0.24-0.96-0.39-1.44c-2.17-6.74-4.75-13.39-6.42-20.25C207.48,452.36,203.48,447.05,197.47,442.46z M420.81,442.21
		c-2.9,3.43-6.46,6.56-8.6,10.47c-2.23,4.08-3.16,8.88-4.48,13.42c-0.3,1.02-0.29,2.7,0.33,3.32c5.78,5.76,9.6,12.6,11.66,20.48
		C436.98,481,437.78,454.23,420.81,442.21z M338.92,498.64c-0.34-0.1-0.68-0.2-1.01-0.29c-9.6,10.15-19.19,20.3-28.36,29.99
		c13.12,0,27.13,0,41.87,0C343.1,519.78,339.18,509.96,338.92,498.64z M323.71,539.98c0,9.26,0,18.11,0,26.95
		c0,5.49-0.28,11,0.18,16.45c0.15,1.84,1.83,4.19,3.47,5.08c1.3,0.7,4.19,0.14,5.32-0.95c1.3-1.26,1.98-3.72,2.01-5.67
		c0.17-12.97,0.09-25.94,0.07-38.92c0-0.94-0.2-1.89-0.32-2.94C330.86,539.98,327.54,539.98,323.71,539.98z M363.3,539.99
		c0,5.03,0,9.63,0,14.23c0,9.72-0.04,19.43,0.04,29.15c0.03,3.33,2.25,5.56,5.22,5.65c3.05,0.1,5.2-1.91,5.62-5.29
		c0.09-0.74,0.08-1.49,0.08-2.24c0-12.7,0.01-25.41-0.01-38.11c0-1.08-0.16-2.16-0.26-3.39C370.4,539.99,367.09,539.99,363.3,539.99
		z M295.19,541.76c-0.36-0.26-0.72-0.51-1.09-0.77c-2.96,3.15-5.94,6.28-8.84,9.48c-0.54,0.6-1.06,1.49-1.07,2.25
		c-0.06,10.32-0.13,20.64,0.03,30.96c0.05,3.31,2.56,5.41,5.55,5.36c2.97-0.05,5.35-2.24,5.37-5.54
		C295.25,569.58,295.19,555.67,295.19,541.76z M232.83,346.39c-2.46,2.45-4.82,4.79-7.32,7.27c5.28,5.28,10.4,10.52,15.65,15.63
		c2.28,2.23,4.98,2.39,7.33,0.18c2.35-2.21,2.47-5,0.25-7.3C243.57,356.83,238.19,351.69,232.83,346.39z M385.98,346.48
		c-5.29,5.23-10.67,10.38-15.83,15.74c-2.23,2.31-2.03,5.1,0.32,7.3c2.22,2.08,4.89,2.07,7.05-0.02
		c5.34-5.18,10.51-10.54,15.57-15.63C390.69,351.37,388.38,348.98,385.98,346.48z M199.3,380.28c-2.51,2.38-4.93,4.67-7.45,7.06
		c5.34,5.38,10.52,10.73,15.86,15.91c2.18,2.11,4.84,2.07,7.04-0.02c2.33-2.21,2.51-4.98,0.27-7.3
		C209.86,390.57,204.48,385.41,199.3,380.28z M419.69,380.03c-5.32,5.31-10.55,10.44-15.65,15.69c-2.23,2.3-2.3,5-0.05,7.33
		c2.1,2.17,4.82,2.45,7.01,0.33c5.42-5.25,10.61-10.73,15.97-16.2C424.63,384.88,422.33,382.62,419.69,380.03z M244.77,566.13
		c0,6.29-0.15,12.11,0.06,17.92c0.11,2.96,2.05,4.79,5.08,4.94c3.02,0.14,5.35-1.51,5.51-4.41c0.34-6.15,0.1-12.34,0.1-18.45
		C251.83,566.13,248.51,566.13,244.77,566.13z M312.27,577.76c0-12.74,0-25.15,0-37.69c-2,0-3.78,0-5.63,0c0,12.68,0,25.1,0,37.69
		C308.55,577.76,310.26,577.76,312.27,577.76z M351.81,577.76c0-12.86,0-25.26,0-37.76c-1.96,0-3.65,0-5.54,0
		c0,12.69,0,25.18,0,37.76C348.23,577.76,349.93,577.76,351.81,577.76z M272.7,559.57c-2.46,2.02-5.35,3.21-5.6,4.82
		c-0.68,4.34-0.23,8.86-0.23,13.22c2.3,0,4.09,0,6.06,0c0-4.92,0.01-9.52-0.01-14.13C272.91,562.63,272.82,561.76,272.7,559.57z"/>
	<path d="M249.33,535.24c-9.27-0.09-16.84-7.79-16.72-17.01c0.12-9.28,7.75-16.8,17.01-16.77c9.26,0.02,16.88,7.63,16.91,16.88
		C266.56,527.74,258.84,535.33,249.33,535.24z M249.6,512.7c-3.07-0.02-5.72,2.58-5.74,5.64c-0.02,3.11,2.51,5.63,5.67,5.65
		c3.18,0.02,5.71-2.45,5.73-5.58C255.27,515.34,252.68,512.72,249.6,512.7z"/>
	<path d="M379.9,515.89c-9.33,0.03-16.9-7.43-16.99-16.73c-0.09-9.35,7.74-17.19,17.08-17.1c9.22,0.09,16.86,7.8,16.82,17
		C396.79,508.33,389.21,515.86,379.9,515.89z M385.56,498.88c-0.09-3.02-2.84-5.64-5.85-5.57c-3.04,0.08-5.6,2.78-5.53,5.84
		c0.07,3.17,2.59,5.54,5.8,5.47C383.13,504.56,385.65,501.96,385.56,498.88z"/>
</g>
</svg>
