<?xml version="1.0" encoding="utf-8"?>
<!-- Generator: Adobe Illustrator 26.0.0, SVG Export Plug-In . SVG Version: 6.00 Build 0)  -->
<svg version="1.1" id="Layer_1" xmlns="http://www.w3.org/2000/svg" xmlns:xlink="http://www.w3.org/1999/xlink" x="0px" y="0px"
	 viewBox="0 0 595.28 841.89" style="enable-background:new 0 0 595.28 841.89;" xml:space="preserve">
<g>
	<path d="M161,315.38c1.29-0.1,2.58-0.28,3.86-0.28c108.35-0.01,216.7-0.01,325.06-0.01c1.3,0,2.59,0,4.13,0
		c0,70.64,0,141.07,0,211.74c-0.91,0.06-1.85,0.17-2.79,0.17c-109.76,0.01-219.52,0.01-329.29,0c-0.33,0-0.65-0.02-0.98-0.03
		C161,456.44,161,385.91,161,315.38z M479.7,329.81c-101.42,0-202.67,0-304.04,0c0,50.66,0,101.14,0,151.7
		c101.49,0,202.74,0,304.04,0C479.7,430.83,479.7,380.42,479.7,329.81z M327.49,517.23c7.04,0.07,12.88-5.56,13.06-12.59
		c0.18-7.08-5.74-13.06-12.91-13.06c-7.06,0.01-12.84,5.72-12.9,12.75C314.69,511.3,320.48,517.16,327.49,517.23z"/>
	<path d="M250.52,600.61c0-6.87,0-13.53,0-20.61c13.24,0,26.31,0,39.71,0c0-12.83,0-25.26,0-37.86c26.66,0,52.96,0,79.67,0
		c0,12.51,0,25.01,0,37.87c14.34,0,28.27,0,42.39,0c0,7.03,0,13.7,0,20.59C358.32,600.61,304.51,600.61,250.52,600.61z"/>
</g>
</svg>
