<?xml version="1.0" encoding="utf-8"?>
<!-- Generator: Adobe Illustrator 26.0.0, SVG Export Plug-In . SVG Version: 6.00 Build 0)  -->
<svg version="1.1" id="Layer_1" xmlns="http://www.w3.org/2000/svg" xmlns:xlink="http://www.w3.org/1999/xlink" x="0px" y="0px"
	 viewBox="0 0 595.28 841.89" style="enable-background:new 0 0 595.28 841.89;" xml:space="preserve">
<g>
	<path d="M73.77,499.9c1.98-4.9,5.8-6.35,10.82-6.34c47.9,0.07,95.81,0.04,143.71,0.04c1.57,0,3.14,0,4.93,0c0-19.96,0-39.58,0-59.7
		c-4.59,0-9.08,0.04-13.57-0.01c-7.39-0.07-10.13-2.81-10.15-10.15c-0.03-9.05-0.02-18.1,0-27.15c0.01-7.71,2.84-10.58,10.6-10.59
		c20.89-0.03,41.78-0.01,62.68-0.01c27.01,0,54.03,0,81.04,0c1.59,0,3.18,0,5.07,0c0-19.82,0-39.43,0-59.62
		c-4.18,0-8.38,0.01-12.57,0c-8.39-0.03-11.07-2.68-11.08-10.92c-0.01-9.05-0.03-18.1,0.01-27.15c0.03-6.84,2.86-9.81,9.67-9.81
		c39.39-0.05,78.78-0.05,118.16,0c6.56,0.01,9.47,3.03,9.47,9.61c0.03,53.23-0.01,106.45,0.06,159.68c0,4.03-1.81,6.67-4.82,9.05
		c-70.6,55.93-141.16,111.89-211.72,167.85c-2.81,2.23-5.89,4.21-8.38,6.75c-5.66,5.76-12.35,7.07-20.25,7.02
		c-44.18-0.3-88.36-0.14-132.54-0.15c-9.8,0-11.97-2.17-11.97-11.94c0-26.61,0-53.23,0-79.84c0-1.46,0-2.92,0-4.6
		c-6.61-1.59-15,2.52-19.16-6.09C73.77,523.85,73.77,511.87,73.77,499.9z M109.11,622.1c1.08,0.08,1.98,0.21,2.87,0.21
		c42.84,0.01,85.68,0.04,128.52-0.09c1.9-0.01,4.12-1.01,5.65-2.22c72.48-57.38,144.89-114.84,217.38-172.2
		c2.38-1.88,3.14-3.75,3.13-6.66c-0.1-26.34-0.06-52.69-0.06-79.03c0-1.4,0-2.8,0-4.4c-10.15,0-19.72,0-29.29,0
		c-7.47,0-11.48-2.88-11.38-8.15c0.1-5.17,3.9-7.81,11.24-7.82c9.67,0,19.35,0,29.23,0c0-5.25,0-10.1,0-15.1
		c-27.11,0-54.01,0-81.23,0c0,1.71,0,3.15,0,4.59c0,29.8,0,59.6,0,89.41c0,11.66-1.62,13.26-13.45,13.26c-39.12,0-78.23,0-117.35,0
		c-1.55,0-3.11,0-4.94,0c0,1.98,0,3.42,0,4.87c0,30.47,0,60.93,0,91.4c0,8.96-2.38,11.33-11.37,11.33c-41.38,0-82.75,0-124.13,0
		c-1.55,0-3.11,0-4.74,0c0,5.3,0,10.12,0,15.15c9.59,0,18.89-0.02,28.2,0.02c1.98,0.01,4.01,0.03,5.93,0.44
		c3.97,0.86,6.51,4.33,6.23,8.08c-0.29,3.83-3.23,6.88-7.22,7.31c-1.71,0.19-3.45,0.11-5.18,0.11c-9.28,0.01-18.55,0-28.04,0
		C109.11,589.32,109.11,605.61,109.11,622.1z M369.07,402.28c-48.05,0-95.72,0-143.35,0c0,5.33,0,10.33,0,15.32
		c47.91,0,95.57,0,143.35,0C369.07,412.39,369.07,407.49,369.07,402.28z M89.93,525.26c47.99,0,95.63,0,143.32,0
		c0-5.28,0-10.27,0-15.46c-47.85,0-95.48,0-143.32,0C89.93,515.01,89.93,520,89.93,525.26z M466.48,294.75
		c-35.25,0-70.13,0-105.02,0c0,5.3,0,10.29,0,15.33c35.14,0,70.03,0,105.02,0C466.48,304.87,466.48,299.97,466.48,294.75z"/>
	<path d="M418.74,349.63c0.04,4.28-3.48,7.91-7.77,8.02c-4.34,0.11-8.27-3.77-8.18-8.09c0.09-4.23,3.77-7.78,8.05-7.76
		C415.19,341.82,418.7,345.31,418.74,349.63z"/>
	<path d="M172.72,564.87c-0.11,4.23-3.82,7.75-8.1,7.7c-4.5-0.05-8.06-3.8-7.85-8.28c0.2-4.26,3.99-7.74,8.22-7.55
		C169.25,556.94,172.83,560.71,172.72,564.87z"/>
</g>
</svg>
