<?xml version="1.0" encoding="utf-8"?>
<!-- Generator: Adobe Illustrator 26.0.0, SVG Export Plug-In . SVG Version: 6.00 Build 0)  -->
<svg version="1.1" id="Layer_1" xmlns="http://www.w3.org/2000/svg" xmlns:xlink="http://www.w3.org/1999/xlink" x="0px" y="0px"
	 viewBox="0 0 595.28 841.89" style="enable-background:new 0 0 595.28 841.89;" xml:space="preserve">
<g>
	<path d="M105.93,544.67c1.88-6.77,4.03-13.55,9.68-18.13c3.71-3,7.93-5.58,12.31-7.45c2.83-1.21,3.6-2.43,3.58-5.33
		c-0.13-17.09-0.07-34.17-0.06-51.26c0.01-14.34,7.58-21.93,21.9-21.93c57.88-0.01,115.76,0.17,173.64-0.14
		c12.37-0.07,22.18,8.28,21.79,21.85c-0.49,17.07-0.06,34.17-0.17,51.26c-0.02,2.97,0.53,4.55,3.8,5.52
		c12.17,3.64,21.16,14.98,21.53,27.7c0.45,15.2,0.26,30.42,0.29,45.64c0.03,18.83-0.04,37.67,0.05,56.5
		c0.02,3.96-0.88,7.14-4.79,8.83c-9.73,0-19.47,0-29.2,0c-3.45-2.09-4.58-5.22-4.45-9.15c0.18-5.32,0.04-10.65,0.04-16.08
		c-64.06,0-127.72,0-191.67,0c0,5.73-0.17,11.2,0.06,16.66c0.16,3.93-1.16,6.76-4.64,8.58c-11.23,0-22.46,0-33.69,0
		C105.93,620.03,105.93,582.35,105.93,544.67z M361.17,580.91c0-11.92,0.08-23.5-0.08-35.07c-0.02-1.77-0.91-3.63-1.75-5.27
		c-4.17-8.02-11.19-10.71-19.83-10.71c-65.12,0.05-130.23,0.03-195.35,0.03c-1.75,0-3.49-0.04-5.24,0.01
		c-12.39,0.36-20.14,8.27-20.23,20.68c-0.05,6.73-0.01,13.47-0.01,20.2c0,3.32,0,6.64,0,10.12
		C199.72,580.91,280.26,580.91,361.17,580.91z M361.26,594.2c-81.08,0-161.72,0-242.27,0c0,17.08,0,33.83,0,50.54
		c4.25,0,8.19,0,12.45,0c0-5.67-0.02-11.14,0-16.6c0.03-6.59,2.13-8.69,8.77-8.7c66.63-0.01,133.25-0.01,199.88,0
		c6.51,0,8.53,2,8.57,8.42c0.03,5.58,0.01,11.15,0.01,16.81c4.49,0,8.52,0,12.6,0C361.26,627.73,361.26,611.05,361.26,594.2z
		 M246.54,516.91c0-1.54-0.01-2.87,0-4.21c0.03-7.48-0.14-14.97,0.16-22.44c0.37-9.22,7.71-17.14,16.88-17.42
		c14.08-0.44,28.18-0.44,42.26-0.01c8.16,0.25,13.58,5.25,16.21,12.86c0.91,2.63,0.96,5.63,1.01,8.47
		c0.13,7.56,0.04,15.12,0.04,22.66c4.54,0,8.56,0,12.76,0c0-18.27,0-36.22,0-54.17c0-7.46-1.83-9.31-9.21-9.31
		c-57.76,0-115.52,0-173.27,0c-7.1,0-9.17,2.04-9.18,9.09c-0.01,16.96,0,33.92,0,50.89c0,1.19,0,2.39,0,3.61c4.51,0,8.45,0,12.61,0
		c0.06-1.41,0.16-2.63,0.17-3.84c0.02-6.86-0.12-13.72,0.04-20.58c0.27-11.64,7.53-19.55,18.98-19.85
		c13.46-0.36,26.94-0.28,40.4,0.17c8.88,0.29,16.14,7.32,16.87,16.14c0.64,7.81,0.37,15.69,0.49,23.54c0.02,1.44,0,2.89,0,4.42
		C238.23,516.91,242.17,516.91,246.54,516.91z M169.84,516.83c17.29,0,34.04,0,51.03,0c0-8.62,0.17-16.96-0.07-25.28
		c-0.12-4-2.51-6.14-6.56-6.18c-12.59-0.12-25.19-0.12-37.78,0.01c-4,0.04-6.42,2.24-6.53,6.24
		C169.67,499.93,169.84,508.26,169.84,516.83z M310.29,516.97c0-8.82,0.14-17.28-0.07-25.73c-0.08-3.37-2.26-5.74-5.72-5.77
		c-13.09-0.15-26.18-0.12-39.26-0.03c-3.11,0.02-5.54,1.97-5.64,4.98c-0.3,8.79-0.1,17.6-0.1,26.55
		C276.49,516.97,293.16,516.97,310.29,516.97z"/>
	<path d="M105.93,362.02c2.06-1.69,3.87-3.94,6.22-5c60.07-27.05,120.21-53.95,180.3-80.96c3.59-1.61,6.74-1.6,10.32,0.01
		c60.09,27.01,120.21,53.96,180.36,80.83c4.29,1.92,6.26,4.56,6.22,9.41c-0.17,23.45-0.08,46.89-0.08,70.34c0,1.11,0,2.23,0,3.63
		c-4.2,0-8.23,0-12.75,0c0-1.33,0-2.65,0-3.98c0-21.58-0.04-43.15,0.05-64.73c0.01-2.57-0.66-3.92-3.14-5.03
		c-57.66-25.73-115.28-51.56-172.87-77.44c-2.14-0.96-3.78-0.96-5.92,0c-57.59,25.88-115.21,51.71-172.87,77.44
		c-2.48,1.11-3.16,2.46-3.14,5.03c0.1,21.45,0.06,42.9,0.06,64.36c0,1.36,0,2.72,0,4.69c-4.38,0-8.57,0-12.75,0
		C105.93,414.42,105.93,388.22,105.93,362.02z"/>
	<path d="M399.83,581.42c0,12.65,0,25.17,0,37.85c-4.41,0-8.35,0-12.8,0c0-1.48,0-2.81,0-4.15c0-29.43,0-58.85,0-88.28
		c0-7.85,1.87-9.72,9.7-9.72c27.69,0,55.37-0.01,83.06,0c7.56,0,9.48,1.94,9.48,9.55c0,29.43,0,58.85,0,88.28c0,1.35,0,2.69,0,4.26
		c-4.25,0-8.19,0-12.55,0c0-12.46,0-24.97,0-37.8C450.96,581.42,425.63,581.42,399.83,581.42z M476.22,568.12
		c0-12.91,0-25.43,0-37.93c-25.54,0-50.78,0-76.04,0c0,12.8,0,25.29,0,37.93C425.69,568.12,450.84,568.12,476.22,568.12z"/>
	<path d="M444.67,472.47c0,6.56,0,12.5,0,18.94c4.03,0,8.05,0,12.33,0c0,4.5,0,8.52,0,12.74c-12.59,0-25.01,0-37.75,0
		c0-3.99,0-8.02,0-12.5c4,0,8.03,0,12.25,0c0-6.49,0-12.54,0-18.96c-1.39-0.07-2.71-0.19-4.03-0.19c-4.74-0.03-9.48,0.14-14.21-0.09
		c-5.07-0.24-8.03-3.68-6.63-8.13c4.08-12.93,8.45-25.77,12.79-38.62c1.05-3.12,3.64-4.31,6.76-4.33c7.98-0.05,15.96-0.05,23.94,0
		c3.66,0.02,6.03,1.83,7.19,5.37c3.97,12.06,8.09,24.07,12.01,36.14c1.85,5.67-0.76,9.4-6.7,9.59
		C456.79,472.61,450.94,472.47,444.67,472.47z M421.66,459.19c11.18,0,21.96,0,33,0c-2.63-7.95-5.03-15.41-7.65-22.8
		c-0.34-0.97-1.76-2.15-2.74-2.21c-4.1-0.25-8.23-0.17-12.34-0.04c-0.81,0.03-2.09,0.65-2.31,1.29
		C426.9,443.28,424.32,451.18,421.66,459.19z"/>
	<path d="M450.8,555.34c-8.53,0-16.62,0-25.04,0c0-4.09,0-8.12,0-12.4c8.29,0,16.57,0,25.04,0
		C450.8,547.09,450.8,551.02,450.8,555.34z"/>
</g>
</svg>
