<?xml version="1.0" encoding="utf-8"?>
<!-- Generator: Adobe Illustrator 26.0.0, SVG Export Plug-In . SVG Version: 6.00 Build 0)  -->
<svg version="1.1" id="Layer_1" xmlns="http://www.w3.org/2000/svg" xmlns:xlink="http://www.w3.org/1999/xlink" x="0px" y="0px"
	 viewBox="0 0 595.28 841.89" style="enable-background:new 0 0 595.28 841.89;" xml:space="preserve">
<g>
	<path d="M478,623.01c-2.16,2.82-5.08,3.48-8.52,3.46c-25.62-0.09-51.25-0.04-76.87-0.06c-1.24,0-2.51,0-3.73-0.24
		c-2.98-0.57-4.63-2.47-4.6-5.48c0.03-3.01,1.72-4.87,4.7-5.39c1.22-0.21,2.49-0.2,3.73-0.2c8.62-0.02,17.25-0.01,25.87-0.01
		c1.33,0,2.66,0,4.18,0c0-14.32,0-28.1,0-42.08c-59.91,0-119.61,0-179.62,0c0,13.89,0,27.77,0,42.08c1.74,0,3.34,0,4.94,0
		c38.5,0,76.99,0,115.49,0c1.37,0,2.76-0.03,4.12,0.13c3.17,0.38,5.09,2.28,5.14,5.42c0.05,3.13-1.77,5.1-4.94,5.59
		c-1.1,0.17-2.24,0.17-3.36,0.17c-56.12,0.01-112.24,0.01-168.36,0c-6.79,0-8.39-1.63-8.39-8.39c0-25.07-0.01-50.15,0-75.22
		c0-14.38,6.22-23.23,19.71-28.57c1.02-0.4,1.99-2.3,2.05-3.55c0.35-7.47-0.15-15.01,0.7-22.41c1.9-16.71,16.35-29.5,33.17-29.91
		c6.87-0.17,13.75-0.1,20.62-0.04c4.08,0.03,6.46,2.23,6.41,5.69c-0.05,3.4-2.47,5.49-6.6,5.52c-6.25,0.05-12.5-0.03-18.75,0.02
		c-13.43,0.11-23.53,9.69-24.11,23.08c-0.27,6.23-0.17,12.48,0.03,18.71c0.03,1.04,1.29,2.57,2.32,2.96
		c12.57,4.64,19.28,13.83,19.49,27.2c0.1,6.58,0.02,13.16,0.02,19.89c60.19,0,119.89,0,180.14,0c0-3.3-0.05-6.51,0.01-9.71
		c0.11-5.48-0.42-11.1,0.6-16.41c2.21-11.49,9.8-18.42,20.99-21.63c0-7.9,0.68-15.78-0.16-23.5c-1.33-12.33-11.21-20.55-23.64-20.58
		c-26.37-0.06-52.75-0.02-79.12-0.02c-17.5,0-35,0.05-52.5-0.07c-1.86-0.01-4.23-0.49-5.44-1.69c-1.17-1.16-1.86-3.71-1.43-5.29
		c0.43-1.58,2.39-2.88,3.91-3.98c0.68-0.49,1.94-0.22,2.94-0.22c43.75-0.01,87.49-0.05,131.24,0.02c17.24,0.03,31.54,11,34.7,27.29
		c1.29,6.65,0.78,13.65,1.03,20.49c0.09,2.47,0.01,4.96,0.01,7.54c8.91,2.36,15.46,7.38,19.3,15.58c1.04,2.22,1.7,4.63,2.54,6.95
		C478,565.12,478,594.07,478,623.01z M231.57,614.91c0-1.93,0-3.41,0-4.89c0-22.05,0-44.1-0.01-66.16c0-1.62,0.01-3.25-0.16-4.85
		c-0.69-6.39-4.08-10.89-9.98-13.34c-10.64-4.42-22.25,3.27-22.32,15.02c-0.16,24.04-0.05,48.09-0.03,72.14
		c0,0.69,0.27,1.37,0.41,2.09C210.13,614.91,220.58,614.91,231.57,614.91z M466.28,614.92c0.22-0.54,0.38-0.76,0.38-0.99
		c0.02-24.79,0.14-49.59-0.04-74.38c-0.05-7.07-5.56-13.08-12.37-14.64c-10.61-2.44-19.9,5.03-19.95,16.35
		c-0.11,23.67-0.04,47.34-0.02,71.02c0,0.83,0.2,1.66,0.32,2.65C445.25,614.92,455.7,614.92,466.28,614.92z"/>
	<path d="M94,392.46c2.49-10.39,5.05-20.77,7.47-31.18c4.08-17.59,8.05-35.2,12.08-52.81c1.02-4.46,2.7-5.83,7.3-5.83
		c16.99-0.02,33.99-0.02,50.98,0c4.49,0.01,6.18,1.21,7.17,5.47c6.45,27.91,12.87,55.82,19.22,83.75c1.28,5.63-0.94,8.2-6.79,8.26
		c-4.35,0.04-8.7,0.01-13.63,0.01c0,1.77,0,3.21,0,4.65c0,18.71,0.01,37.41-0.02,56.12c0,1.48-0.03,3.02-0.4,4.44
		c-0.72,2.76-2.78,4.23-5.55,4.05c-2.91-0.18-4.85-1.87-5.21-4.93c-0.14-1.23-0.11-2.49-0.11-3.74c-0.01-18.58,0-37.16,0-55.75
		c0-1.46,0-2.92,0-4.61c-5.01,0-9.55,0-14.34,0c0,64.73,0,129.26,0,194.22c1.72,0.08,3.41,0.17,5.09,0.24
		c14.48,0.56,25.26,11.13,25.29,24.78c0.01,4.55-1.91,6.75-6.52,6.77c-19.74,0.08-39.49,0.08-59.23,0.01
		c-4.95-0.02-6.93-2.4-6.66-7.39c0.73-13.6,10.78-23.4,24.79-24.14c1.73-0.09,3.47-0.01,5.46-0.01c0-64.95,0-129.6,0-194.71
		c-1.71,0-3.3,0-4.89,0c-11.25,0-22.49-0.09-33.74,0.05c-3.46,0.04-6.1-0.86-7.77-3.98C94,394.96,94,393.71,94,392.46z
		 M123.87,314.01c-5.69,24.85-11.37,49.65-17.1,74.65c26.52,0,52.59,0,79.16,0c-5.75-25.09-11.43-49.89-17.1-74.65
		C153.64,314.01,138.92,314.01,123.87,314.01z M122.44,614.77c16.14,0,31.75,0,47.86,0c-2.45-5.08-5.98-8.17-11.08-8.37
		c-8.59-0.33-17.22-0.34-25.81,0.01C128.31,606.63,124.77,609.74,122.44,614.77z"/>
	<path d="M257.65,292.2c2.7,2.59,5.31,5.3,8.16,7.71c1.01,0.86,2.63,1.42,3.97,1.42c42.11,0.07,84.22,0.08,126.33-0.01
		c1.42,0,3.1-0.79,4.21-1.73c2.74-2.33,5.22-4.97,8.34-8c-1.57-0.23-2.45-0.47-3.34-0.48c-5-0.04-10,0.08-14.99-0.08
		c-3.87-0.12-6.13-2.4-6.08-5.69c0.05-3.15,2.22-5.45,5.88-5.49c10.74-0.13,21.49-0.14,32.24,0.01c3.74,0.05,5.58,2.18,5.88,5.96
		c0.08,0.99,0.03,1.99,0.03,2.99c0,41.78,0,83.56,0,125.34c0,7.75-1.34,9.07-9.2,9.07c-57.61,0-115.21,0-172.82,0
		c-7.28,0-8.71-1.44-8.71-8.78c0-41.9,0-83.81,0-125.71c0-7.56,1.4-8.96,8.98-8.96c39.11,0,78.22-0.01,117.33,0.01
		c1.62,0,3.28-0.01,4.84,0.35c2.79,0.65,4.62,2.82,4.02,5.43c-0.44,1.94-2.34,3.85-4.08,5.08c-1.13,0.8-3.14,0.44-4.76,0.44
		c-33.86,0.02-67.73,0.01-101.59,0.01c-1.44,0-2.88,0-4.32,0C257.87,291.45,257.76,291.82,257.65,292.2z M395.1,312.99
		c-41.7,0-82.97,0-124.24,0c0,18.62,0,36.94,0,56.05c5.05-5.59,9.54-10.58,14.06-15.55c8.74-9.61,17.36-9.56,26,0.08
		c5.29,5.91,10.63,11.77,16.14,17.87c1.59-1.75,2.93-3.2,4.26-4.67c8.45-9.35,16.8-18.79,25.36-28.04
		c6.33-6.84,16.27-7.16,22.77-0.95c1.89,1.81,3.61,3.8,5.38,5.73c3.23,3.53,6.44,7.08,10.26,11.28
		C395.1,340.27,395.1,326.77,395.1,312.99z M395.29,390.27c0-6.1,0.08-11.81-0.07-17.51c-0.02-0.95-0.89-2.01-1.6-2.8
		c-6.85-7.6-13.73-15.18-20.65-22.72c-3.33-3.62-5.63-3.57-9,0.15c-7.12,7.86-14.22,15.75-21.32,23.63
		c-2.65,2.94-5.27,5.91-7.93,8.9c2.38,2.66,4.68,4.97,6.67,7.52c1.69,2.16,3.6,2.92,6.38,2.89c13.49-0.15,26.99-0.07,40.48-0.07
		C390.47,390.27,392.68,390.27,395.29,390.27z M407.89,411.76c0.14-0.28,0.29-0.56,0.43-0.85c-2.72-2.57-5.33-5.27-8.2-7.66
		c-1.12-0.93-2.82-1.65-4.25-1.65c-41.98-0.09-83.96-0.08-125.94-0.03c-1.16,0-2.63,0.21-3.43,0.92c-3.14,2.74-6.06,5.73-9.74,9.27
		C307.9,411.76,357.9,411.76,407.89,411.76z M328.68,390.11c-9.56-10.61-18.56-20.61-27.59-30.58c-2.26-2.5-4.48-2.21-6.66,0.21
		c-7.42,8.25-14.92,16.42-22.21,24.78c-1.16,1.33-1.38,3.48-2.16,5.59C290.06,390.11,308.98,390.11,328.68,390.11z M249.93,299.63
		c-0.26,0.18-0.51,0.35-0.77,0.53c0,34.27,0,68.55,0,103.59c3.26-3.27,6.07-5.91,8.63-8.77c0.81-0.91,1.37-2.39,1.38-3.61
		c0.08-26.56,0.07-53.12,0.01-79.68c0-1.14-0.36-2.54-1.08-3.37C255.5,305.31,252.67,302.51,249.93,299.63z M416.72,403.76
		c0-35.14,0-69.43,0-103.73c-0.27-0.18-0.54-0.36-0.81-0.54c-2.45,2.62-5.06,5.12-7.29,7.92c-1.05,1.32-1.95,3.22-1.96,4.86
		c-0.12,26.19-0.09,52.39-0.06,78.58c0,1.08-0.05,2.5,0.57,3.18C410.07,397.22,413.19,400.21,416.72,403.76z"/>
	<path d="M327.19,350.57c-8.87,0.06-15.97-6.97-15.98-15.8c-0.01-8.89,6.99-15.85,15.91-15.83c8.68,0.02,15.74,6.96,15.85,15.58
		C343.09,343.28,335.98,350.51,327.19,350.57z M326.92,330.19c-2.7,0.26-4.35,1.73-4.35,4.54c0,2.8,1.62,4.39,4.4,4.56
		c2.6,0.17,4.92-2.15,4.69-4.72C331.41,331.84,329.81,330.33,326.92,330.19z"/>
</g>
</svg>
