<?xml version="1.0" encoding="utf-8"?>
<!-- Generator: Adobe Illustrator 26.0.0, SVG Export Plug-In . SVG Version: 6.00 Build 0)  -->
<svg version="1.1" id="Layer_1" xmlns="http://www.w3.org/2000/svg" xmlns:xlink="http://www.w3.org/1999/xlink" x="0px" y="0px"
	 viewBox="0 0 595.28 841.89" style="enable-background:new 0 0 595.28 841.89;" xml:space="preserve">
<g>
	<path d="M504.45,643.96c-1.83,2.97-4.5,3.76-7.92,3.76c-122.5-0.06-245.01-0.05-367.51-0.06c-6.08,0-7.81-1.71-7.81-7.72
		c0-26.32,0-52.64,0-78.97c0-5.66,1.29-7.18,6.92-8.19c5.86-1.05,11.72-2.09,17.83-3.18c0.75-10.63,1.49-21.06,2.2-31.48
		c1.44-21.14,2.86-42.29,4.28-63.43c1.3-19.28,2.61-38.56,3.91-57.84c0.34-5.04,1.97-6.67,6.9-6.78c1.62-0.03,3.24,0.02,4.86,0
		c3.36-0.02,5.46,1.62,6.08,4.88c0.56,2.97-1.48,5.45-4.98,6.37c-0.46,0.12-0.95,0.15-1.86,0.28c-0.69,10.14-1.38,20.26-2.08,30.63
		c12.1,0,23.78,0,36.14,0c-0.65-10.14-1.31-20.24-1.98-30.69c-1.57-0.08-2.91-0.05-4.21-0.23c-3.12-0.42-5.35-2.94-5.09-5.9
		c0.28-3.13,2.04-5.09,5.26-5.26c2.99-0.16,5.99-0.16,8.98-0.05c3.81,0.13,5.63,1.85,5.93,5.76c0.77,9.94,1.46,19.89,2.14,29.84
		c1.43,20.89,2.84,41.79,4.25,62.69c0.59,8.69,1.14,17.37,1.74,26.57c10.36-1.97,20.34-3.86,30.63-5.82
		c0.54-7.19,1.12-14.36,1.61-21.54c1.73-25.37,3.43-50.75,5.12-76.12c0.84-12.56,1.66-25.13,2.42-37.7c0.33-5.4,2.24-7.37,7.68-7.38
		c12.97-0.03,25.95-0.03,38.92,0c5.45,0.01,7.42,1.8,7.79,7.31c1.6,24.01,3.12,48.02,4.71,72.03c0.62,9.33,1.37,18.65,2.01,27.98
		c0.26,3.86-1.92,6.68-5.22,6.97c-3.11,0.27-5.61-1.97-6.15-5.7c-0.25-1.72-0.22-3.48-0.34-5.22c-0.43-6.21-0.86-12.42-1.31-18.81
		c-1.03-0.17-1.85-0.41-2.67-0.42c-11.98-0.03-23.95,0.02-35.93-0.06c-2.25-0.01-3.39,0.48-3.54,3.02c-1,17.05-2.12,34.09-3.2,51.14
		c-0.03,0.48,0,0.97,0,2.18c25.95-4.97,51.62-9.88,77.54-14.85c0-1.69,0-3.04,0-4.39c0-18.96-0.01-37.92,0.01-56.89
		c0.01-6.45,1.8-8.23,8.22-8.23c29.44,0,58.88-0.05,88.32,0.07c2.9,0.01,4.12-0.88,4.93-3.6c3.11-10.36,6.45-20.65,9.72-30.97
		c1.66-5.22,2.67-5.98,7.94-5.98c13.1-0.01,26.2,0.09,39.29-0.06c3.34-0.04,5.81,0.91,7.51,3.78c0,70.61,0,141.22,0,211.84
		c-3.5,4.34-7.74,4.99-10.08,1.29c-0.91-1.44-1.09-3.53-1.09-5.33c-0.05-51.63-0.04-103.25-0.04-154.88c0-1.46,0-2.92,0-4.58
		c-47.84,0-95.29,0-142.93,0c0,67.47,0,134.72,0,202.12c14.77,0,29.29,0,44.17,0c0-1.56,0-2.9,0-4.24c0-12.97-0.01-25.94,0.01-38.91
		c0.01-5.74,1.81-7.56,7.61-7.58c12.84-0.03,25.69-0.03,38.53,0c6.31,0.01,7.93,1.63,7.94,7.97c0.02,12.84,0,25.69,0.02,38.53
		c0,1.43,0.15,2.85,0.23,4.22c15.02,0,29.56,0,44.42,0c0-4.44,0.09-8.66-0.03-12.87c-0.09-3.2,0.31-6.07,3.76-7.34
		c3.5-1.29,5.62,0.77,7.49,3.3C504.45,627.5,504.45,635.73,504.45,643.96z M132.52,636.16c68.78,0,137.2,0,205.72,0
		c0-44.21,0-88.17,0-132.56c-7.02,1.37-13.72,2.7-20.42,3.98c-42.03,8.04-84.06,16.08-126.1,24.04c-2.08,0.39-2.63,1.32-2.59,3.25
		c0.1,3.99,0.06,7.98,0.02,11.97c-0.04,4.82-1.34,6.55-6.02,7.45c-10.38,2-20.79,3.86-31.19,5.78c-6.46,1.19-12.92,2.38-19.42,3.57
		C132.52,587.95,132.52,611.89,132.52,636.16z M162.16,478.76c-1.54,23.13-3.06,45.78-4.59,68.74c6.11-1.11,11.49-2.09,16.87-3.06
		c0.24-0.04,0.6,0.03,0.72-0.11c0.85-0.97,2.26-1.92,2.36-2.99c0.31-3.34,0.12-6.72,0.12-10.09c0.01-7.71,0.8-8.6,8.39-10.02
		c7.04-1.31,14.06-2.72,21.11-4.09c-0.78-12.12-1.47-23.81-2.38-35.48c-0.08-1.02-1.54-2.76-2.38-2.77
		C189.2,478.71,175.99,478.76,162.16,478.76z M405.97,636.15c10.57,0,20.73,0,31.01,0c0-13.17,0-26.09,0-39.08
		c-10.44,0-20.68,0-31.01,0C405.97,610.19,405.97,623.01,405.97,636.15z M450.77,422.21c14.5,0,28.36,0,42.18,0
		c0-9.77,0-19.27,0-28.97c-10.59,0-20.9-0.03-31.21,0.06c-0.75,0.01-1.96,0.73-2.17,1.37C456.59,403.73,453.74,412.83,450.77,422.21
		z M269.38,378.1c-0.62,9.35-1.21,18.36-1.82,27.54c12.08,0,23.78,0,35.74,0c-0.64-9.34-1.26-18.36-1.89-27.54
		C290.7,378.1,280.29,378.1,269.38,378.1z M162.94,467.16c13.93,0,27.18,0,40.87,0c-0.54-7.84-1.06-15.43-1.58-22.98
		c-12.88,0-25.15,0-37.69,0C164,451.88,163.48,459.39,162.94,467.16z M265.35,438.73c13.61,0,26.72,0,40.18,0
		c-0.51-7.31-1.01-14.32-1.5-21.35c-12.63,0-24.79,0-37.32,0C266.26,424.48,265.82,431.4,265.35,438.73z"/>
	<path d="M339.77,264.46c9.6,2.4,15.6,8.25,17.61,18.09c2.81,13.74-5.89,25.78-19.75,27.02c-3.71,0.33-7.48,0.05-11.21,0.3
		c-1.13,0.08-2.77,0.73-3.2,1.6c-4.13,8.46-10.77,13.16-20.15,14c-0.36,0.03-0.7,0.21-1.5,0.46c0,3.47,0.05,7.04-0.01,10.61
		c-0.15,8.8-6.8,15.15-15.99,15.3c-8.95,0.15-15.76-5.9-16.27-14.57c-0.18-2.98-0.19-5.99-0.08-8.97c0.07-2.02-0.59-2.94-2.69-3.07
		c-15.29-0.94-23.21-17.04-18.25-31.09c2.92-8.27,9.82-13.38,18.58-13.86c1.24-0.07,2.51-0.16,3.74-0.03
		c6.02,0.62,10.91,0.1,13.99-6.68c2.45-5.39,8.53-7.24,13.99-9.1C312.32,264.46,326.05,264.46,339.77,264.46z M328.06,298.3
		c0-0.02,0-0.04,0-0.06c2.99,0,5.99,0.09,8.98-0.02c4.12-0.16,7.03-2.27,8.71-6c3.63-8.06-1.63-16.27-10.68-16.4
		c-10.47-0.15-20.95-0.11-31.42-0.01c-7.07,0.07-11.18,3.52-12.51,10.39c-0.71,3.67-2.77,5.35-6.46,5.31
		c-4.74-0.05-9.48-0.13-14.21,0.05c-2.2,0.08-4.51,0.41-6.53,1.23c-4.5,1.83-7.13,6.75-6.4,11.16c0.91,5.49,5.15,9.53,10.53,10.02
		c8.57,0.78,12.47,5.01,12.49,13.58c0.01,2.62-0.04,5.24,0.02,7.86c0.08,3.46,1.83,5.41,4.8,5.43c2.93,0.02,4.87-1.97,4.98-5.35
		c0.1-2.99,0.01-5.98,0.03-8.98c0.04-7.05,4.17-11.62,11.25-12.46c7.48-0.89,10.22-3.23,11.85-10.62c0.74-3.36,2.77-4.92,5.97-5.08
		C322.32,298.18,325.19,298.3,328.06,298.3z"/>
	<path d="M199.71,351.33c0,3.34,0.04,6.57-0.01,9.8c-0.15,9.63-6.78,16.21-16.32,16.23c-9.38,0.02-15.95-6.32-16.31-15.85
		c-0.13-3.35-0.02-6.7-0.02-10.11c-2.47-0.56-4.68-0.9-6.8-1.56c-7.1-2.2-12.14-6.8-14.79-13.72c-0.83-2.18-1.97-3.38-4.05-4.33
		c-10.47-4.75-15.89-15.97-13.36-27.21c2.4-10.64,12.78-18.6,23.89-18.32c9.88,0.25,18.73,6.71,21.87,16.4
		c0.82,2.54,1.96,3.16,4.44,3.11c7.6-0.15,15.22-0.21,22.82,0.01c11.63,0.32,19.68,8.42,20.96,20.77
		c1.12,10.71-5.54,20.91-15.5,23.58C204.4,350.7,202.16,350.91,199.71,351.33z M211.06,328.41c-0.03-6.87-4.37-11.2-11.66-11.3
		c-8.98-0.12-17.96-0.03-26.94-0.04c-6.97-0.01-7.82-0.78-8.63-7.74c-1.08-9.3-10.58-14.5-18.54-10.16
		c-4.5,2.45-6.92,7.27-6.32,12.55c0.61,5.26,4.13,9.32,9.67,10.52c3.61,0.79,6.27,2.06,6.82,6.18c0.97,7.24,4.22,10.23,11.69,11.1
		c7.13,0.83,11.18,5.19,11.4,12.4c0.1,3.12,0.03,6.24,0.04,9.35c0.01,2.97,1.49,4.77,4.44,4.95c3.13,0.2,4.98-1.51,5.2-4.61
		c0.2-2.86,0.08-5.73,0.1-8.6c0.06-8.58,3.95-12.79,12.54-13.55C207.28,338.92,211.08,334.78,211.06,328.41z"/>
	<path d="M421.36,453.86c14.97,0,29.93-0.01,44.9,0c5.49,0.01,7.41,1.92,7.43,7.39c0.03,6.11,0.05,12.22-0.01,18.33
		c-0.05,4.54-2.07,6.7-6.62,6.71c-30.3,0.05-60.61,0.05-90.92,0c-4.68-0.01-6.54-1.97-6.6-6.66c-0.08-6.48-0.09-12.97,0.01-19.45
		c0.07-4.36,2.12-6.31,6.53-6.32C391.18,453.84,406.27,453.86,421.36,453.86z M462.16,465.35c-27.31,0-54.17,0-81.01,0
		c0,3.3,0,6.33,0,9.29c27.15,0,54,0,81.01,0C462.16,471.43,462.16,468.5,462.16,465.35z"/>
	<path d="M450.73,540.73c5.36,0,10.72-0.04,16.08,0.01c4.7,0.05,6.82,2.18,6.86,6.88c0.05,6.36,0.07,12.72-0.01,19.08
		c-0.05,4.3-2.14,6.57-6.4,6.61c-11.22,0.11-22.44,0.11-33.66,0.01c-4.37-0.04-6.34-2.12-6.39-6.53
		c-0.08-6.61-0.09-13.22,0.01-19.82c0.06-4.1,2.17-6.15,6.29-6.22C439.26,540.66,445,540.73,450.73,540.73z M462.15,552.35
		c-8.13,0-15.78,0-23.4,0c0,3.26,0,6.2,0,9.21c7.89,0,15.55,0,23.4,0C462.15,558.39,462.15,555.47,462.15,552.35z"/>
	<path d="M392.54,540.72c5.49,0,10.97-0.04,16.46,0.01c4.91,0.04,7,2.15,7.03,7.11c0.05,6.23,0.06,12.47-0.01,18.7
		c-0.05,4.49-2.17,6.74-6.63,6.78c-11.1,0.09-22.19,0.09-33.29,0c-4.47-0.04-6.48-2.03-6.55-6.38c-0.1-6.61-0.1-13.22,0-19.82
		c0.07-4.32,2.16-6.32,6.53-6.38C381.57,540.67,387.05,540.73,392.54,540.72z M404.44,552.24c-8.05,0-15.6,0-23.33,0
		c0,3.23,0,6.25,0,9.3c7.9,0,15.54,0,23.33,0C404.44,558.35,404.44,555.43,404.44,552.24z"/>
	<path d="M392.64,529.86c-5.36,0-10.72,0.06-16.08-0.02c-5.15-0.07-6.98-1.91-7.03-7.03c-0.06-6.23-0.07-12.47,0.01-18.7
		c0.06-4.84,2.04-6.79,6.84-6.81c10.97-0.04,21.94-0.04,32.91,0c4.52,0.02,6.68,2.14,6.73,6.61c0.08,6.36,0.07,12.72,0.01,19.07
		c-0.05,4.68-2.15,6.77-6.93,6.85C403.61,529.92,398.13,529.85,392.64,529.86z M380.97,518.11c8,0,15.66,0,23.39,0
		c0-3.28,0-6.3,0-9.24c-7.98,0-15.64,0-23.39,0C380.97,512.03,380.97,514.88,380.97,518.11z"/>
	<path d="M450.25,529.85c-5.36,0-10.72,0.06-16.08-0.01c-5.1-0.07-6.92-1.94-6.96-7.09c-0.05-6.23-0.06-12.47,0.01-18.7
		c0.05-4.8,2.05-6.73,6.89-6.75c10.85-0.03,21.69-0.03,32.54,0c4.96,0.02,7.01,2.08,7.04,7.05c0.04,6.23,0.05,12.47-0.01,18.7
		c-0.04,4.52-2.09,6.68-6.6,6.77C461.47,529.94,455.86,529.85,450.25,529.85z M462.16,508.82c-8.1,0-15.74,0-23.35,0
		c0,3.3,0,6.32,0,9.26c7.93,0,15.57,0,23.35,0C462.16,514.89,462.16,511.97,462.16,508.82z"/>
	<path d="M238.34,594.38c-24.69,0-49.39,0-74.08,0c-1.25,0-2.51,0.07-3.74-0.08c-3.58-0.43-5.66-2.64-5.61-5.81
		c0.05-3.17,2.21-5.29,5.8-5.61c0.99-0.09,1.99-0.04,2.99-0.04c49.89,0,99.77,0,149.66,0c0.37,0,0.75,0,1.12,0
		c5.14,0.03,8.03,2.15,7.96,5.84c-0.07,3.65-2.95,5.7-8.15,5.7C288.97,594.38,263.65,594.38,238.34,594.38z"/>
	<path d="M306.78,569.82c-2.99,0-5.99,0.07-8.98-0.02c-3.91-0.11-6.04-2.08-6.13-6c-0.15-6.23-0.15-12.47-0.01-18.7
		c0.08-4.02,2.05-5.96,6.04-6.03c6.23-0.11,12.47-0.11,18.7,0.01c3.9,0.08,5.96,2.18,6.04,6.1c0.11,6.11,0.11,12.22,0,18.33
		c-0.07,4.05-2.28,6.13-6.3,6.3c-0.12,0.01-0.25,0-0.37,0C312.77,569.82,309.78,569.82,306.78,569.82z M310.86,550.59
		c-2.75,0-5.18,0-7.53,0c0,2.77,0,5.29,0,7.76c2.66,0,4.98,0,7.53,0C310.86,555.72,310.86,553.3,310.86,550.59z"/>
	<path d="M282.23,554.44c0,3.24,0.11,6.49-0.03,9.72c-0.15,3.48-2.2,5.55-5.7,5.61c-6.36,0.12-12.72,0.12-19.08,0.01
		c-3.63-0.06-5.83-2.25-5.89-5.87c-0.12-6.36-0.12-12.72,0-19.08c0.07-3.5,2.12-5.64,5.59-5.71c6.48-0.14,12.97-0.14,19.45-0.01
		c3.59,0.07,5.39,2.04,5.66,5.61c0.02,0.25,0.03,0.5,0.03,0.75c0,2.99,0,5.98,0,8.98C282.25,554.44,282.24,554.44,282.23,554.44z
		 M270.71,558.4c0-2.78,0-5.29,0-7.86c-2.67,0-5.08,0-7.65,0c0,2.7,0,5.21,0,7.86C265.66,558.4,267.98,558.4,270.71,558.4z"/>
	<path d="M226.85,539.05c3.12,0,6.24-0.09,9.35,0.02c3.77,0.13,5.98,2.05,6.08,5.68c0.17,6.48,0.21,12.97-0.03,19.45
		c-0.13,3.41-2.28,5.53-5.83,5.58c-6.36,0.1-12.72,0.1-19.08,0c-3.52-0.06-5.7-2.05-5.8-5.55c-0.18-6.6-0.18-13.22,0.01-19.82
		c0.1-3.32,2.15-5.24,5.56-5.32c3.24-0.08,6.48-0.02,9.73-0.02C226.85,539.07,226.85,539.06,226.85,539.05z M230.65,550.54
		c-2.59,0-5,0-7.49,0c0,2.72,0,5.23,0,7.86c2.59,0,4.91,0,7.49,0C230.65,555.74,230.65,553.21,230.65,550.54z"/>
</g>
</svg>
