<?xml version="1.0" encoding="utf-8"?>
<!-- Generator: Adobe Illustrator 26.0.0, SVG Export Plug-In . SVG Version: 6.00 Build 0)  -->
<svg version="1.1" id="Layer_1" xmlns="http://www.w3.org/2000/svg" xmlns:xlink="http://www.w3.org/1999/xlink" x="0px" y="0px"
	 viewBox="0 0 595.28 841.89" style="enable-background:new 0 0 595.28 841.89;" xml:space="preserve">
<g>
	<path d="M297.04,505.56c-0.15,1.29-0.28,2.44-0.44,3.79c-3.02-0.07-5.22,1.07-5.74,4.74c1.2,0,2.24,0,3.28,0
		c23.93,0,47.86,0,71.79,0c4.97,0,5.3,0.35,5.3,5.41c0,4.83-0.1,9.65,0.08,14.47c0.04,1.11,0.78,2.48,1.64,3.22
		c3.78,3.21,3.74,12.06-0.05,15.17c-0.87,0.71-1.54,2.16-1.59,3.3c-0.18,4.33-0.07,8.66-0.07,13c0,4.6-0.59,5.17-5.33,5.17
		c-17.82,0-35.65,0-53.47,0c-7.29,0-14.57,0.02-21.86-0.01c-3.66-0.01-4.44-0.75-4.44-4.24c-0.01-17.73-0.05-35.45,0.08-53.18
		c0.02-2.17,0.6-4.54,1.62-6.44C289.69,506.44,292.81,504.77,297.04,505.56z M356.79,537.36c-4.23,0-8.46-0.06-12.69,0.02
		c-3.41,0.07-5.72,1.97-7.07,4.96c-1.14,2.52-0.41,5.82,2.2,7.64c1.72,1.21,4.11,1.94,6.23,2.03c6.48,0.26,12.99-0.06,19.48,0.13
		c8.74,0.25,9.48-1.29,9.18-9.09c-0.15-3.8-1.67-5.61-5.52-5.67C364.66,537.31,360.72,537.36,356.79,537.36z"/>
	<path d="M247.59,546.17c0.45,3.28-0.64,5.71-3.56,7.44c-10.07,5.96-20,12.14-30.14,17.96c-4.51,2.59-10.14,0.24-11.72-4.73
		c-3.4-10.74-6.59-21.55-9.79-32.35c-2.31-7.81-4.57-15.64-6.73-23.49c-2.81-10.2-5.48-20.44-8.26-30.65
		c-2.17-7.95-4.55-15.84-6.55-23.83c-0.8-3.2-1.19-6.6-1.12-9.9c0.1-5.13,3.12-7.6,8.68-7.26c7.07,0.44,14.14,1.1,21.19,1.83
		c5.38,0.56,10.75,1.26,16.09,2.13c4.61,0.76,7.72,3.89,8.94,8.09c3.62,12.52,6.83,25.15,10.14,37.75
		c3.01,11.48,6.04,22.95,8.83,34.48c1.8,7.42,3.17,14.94,4.73,22.41C248.06,546.1,247.82,546.14,247.59,546.17z M176.64,449.88
		c1.25,4.8,2.38,9.25,3.56,13.68c2.83,10.7,5.68,21.39,8.53,32.08c2.04,7.68,4.09,15.36,6.15,23.04c2.03,7.57,3.98,15.17,6.18,22.69
		c1.25,4.28,1.73,4.5,5.77,2.8c10.06-4.22,20-8.72,30.09-12.87c3.08-1.27,3.54-3.08,2.81-5.94c-2.67-10.54-5.27-21.1-7.87-31.66
		c-3.22-13.04-6.4-26.09-9.69-39.11c-0.2-0.79-1.01-1.71-1.75-2c-1.35-0.52-2.86-0.76-4.32-0.86c-11.29-0.77-22.59-1.51-33.89-2.18
		C180.47,449.44,178.71,449.74,176.64,449.88z M222.23,548.9c-0.4,3.53,0.92,6.67,4.35,8.59c0.8,0.45,2.51,0.29,3.23-0.29
		c3.5-2.84,3.64-7.53,0.12-12.39c-0.97-1.34-3.39-2.81-4.65-2.45c-1.33,0.38-2.12,2.83-3.02,4.44
		C222.01,547.25,222.23,547.96,222.23,548.9z"/>
	<path d="M201.29,573.06c-6.76,1.39-9.34,0.05-11.13-6.08c-4.41-15.14-8.69-30.32-13.01-45.49c-3.03-10.65-6.09-21.29-9.01-31.97
		c-3.49-12.77-6.87-25.57-10.22-38.38c-1.26-4.82,3.78-10.27,8.83-10.29c0.39,5.17,0.24,10.4,1.28,15.38
		c1.65,7.95,4.11,15.73,6.2,23.58c3.65,13.73,7.2,27.49,10.96,41.19c2.88,10.49,5.95,20.93,9.06,31.36
		c1.73,5.81,3.68,11.55,5.57,17.3C200.17,570.76,200.73,571.78,201.29,573.06z"/>
	<path d="M274.5,440.17c0.11,7.56-1.96,14.19-7.94,19.77c-1.29-5.18,2.93-23.08,6.36-27.43c0.69,1.29,1.28,2.38,1.86,3.45
		c1.52-10.44,6.24-19.22,15.33-25.12c6.73-4.37,14.37-5.29,22.16-3.99c18.72,3.14,29.32,18.55,28.36,34.51
		c-1.02,16.89-11.24,28.69-30.14,30.1C294.15,472.67,277.61,461.16,274.5,440.17z M286.99,432.99c-0.14,0.55-0.28,1.09-0.42,1.64
		c-2.07-0.54-4.14-1.09-5.94-1.56c0,4.08,0,8.29,0,12.49c2.86-0.58,5.19-1.05,7.52-1.53c0.08,0.37,0.17,0.74,0.25,1.11
		c-1.46,0.5-2.88,1.25-4.38,1.44c-2.66,0.35-2.9,1.6-1.69,3.59c5.14,8.45,11.65,15.08,22.07,16.43c10.9,1.41,20.01-2.18,26.34-11.01
		c5.89-8.21,6.45-17.65,2.6-26.92c-4.51-10.86-16.93-19.91-32.06-16.68c-11.35,2.42-19.06,9.57-20.32,19.68
		C282.98,432.11,284.99,432.55,286.99,432.99z"/>
	<path d="M351.11,415.98c-7.6-7.75-14.64-14.93-22.25-22.69c4.79-4.63,9.47-9.2,14.19-13.71c1.47-1.4,3.03-1.43,4.78-0.25
		c6.75,4.55,12.61,10.02,17.14,16.8c0.54,0.81,0.54,2.7-0.05,3.42C360.59,404.94,356.05,410.16,351.11,415.98z"/>
	<path d="M286.13,484.17c-4.87,4.4-9.29,8.54-13.92,12.44c-0.74,0.62-2.84,0.74-3.53,0.16c-6.04-5.12-11.93-10.42-17.76-15.78
		c-0.46-0.42-0.55-1.99-0.15-2.5c3.37-4.31,6.93-8.47,10.34-12.75c1.76-2.21,3.34-1.71,5.09-0.09
		C272.65,471.67,279.13,477.67,286.13,484.17z"/>
	<path d="M422.14,512.49c-5.46,0-11.97-6.28-11.76-11.63c0.19-5.11,5.72-11.92,12.28-11.66c6.39,0.25,12.24,5.31,12.37,11.13
		C435.17,507.11,429.46,512.49,422.14,512.49z"/>
	<path d="M349.26,496.45c-13.96,5.23-27.35,10.36-40.85,15.19c-2.3,0.82-5.14,0.73-7.57,0.25c-0.99-0.2-1.92-2.5-2.15-3.96
		c-0.11-0.71,1.28-2.09,2.26-2.47c8.16-3.17,16.38-6.18,24.58-9.24c5.44-2.03,10.87-4.05,16.31-6.08c3.82-1.43,4.16-1.31,5.79,2.32
		C348.18,493.66,348.64,494.92,349.26,496.45z"/>
	<path d="M398.94,503.71c-4.46,0.02-8.25-4-8.2-8.69c0.04-4.15,4.27-7.99,8.84-8.02c5.5-0.04,8.83,3.12,9.11,8.1
		C408.95,500.07,405.37,504.15,398.94,503.71z"/>
	<path d="M445.51,486.34c4.95-0.03,8.67,3.34,8.78,7.97c0.12,4.6-4.51,9.4-9.1,9.45c-4.1,0.04-9.12-4.57-9.19-8.43
		C435.91,490.82,440.62,486.37,445.51,486.34z"/>
	<path d="M464.1,468.47c3.95,0.02,7.17,3.41,7.12,7.51c-0.05,4.2-3.72,7.62-8.15,7.6c-3.06-0.02-7.22-4.38-7.17-7.52
		C455.96,472.5,460.32,468.46,464.1,468.47z"/>
	<path d="M389.01,476.93c0.02,3.47-3.98,7.75-7.25,7.76c-3.91,0.02-7.96-4.28-7.93-8.42c0.02-2.93,4.18-6.81,7.42-6.93
		C384.68,469.23,388.99,473.44,389.01,476.93z"/>
	<path d="M468.46,459.89c-3.08-0.06-6.03-3.26-6-6.49c0.04-3.54,3.3-6.66,6.92-6.63c3.18,0.03,6.49,3.1,6.52,6.05
		C475.94,456.08,471.84,459.96,468.46,459.89z"/>
	<path d="M351.7,502.66c1.29,3.19,2.46,6.05,3.74,9.22c-9.15,0-17.99,0-26.83,0c-0.06-0.17-0.12-0.34-0.19-0.5
		C336.02,508.54,343.62,505.69,351.7,502.66z"/>
	<path d="M420.17,413.8c-0.81-0.11-2.63,0.03-4.05-0.66c-1.17-0.57-2.64-2.16-2.58-3.23c0.07-1.29,1.54-3.51,2.51-3.57
		c4.14-0.24,8.36-0.13,12.46,0.45c2.34,0.33,2.64,2.35,1.13,4.26C427.38,413.92,424.15,413.66,420.17,413.8z"/>
	<path d="M382.39,454.96c-0.06,3.2-3.15,6.18-6.33,6.11c-2.9-0.07-6.04-3.47-6.02-6.54c0.01-3.23,2.88-5.93,6.15-5.79
		C379.51,448.88,382.44,451.82,382.39,454.96z"/>
	<path d="M314.8,474.86c-8.46,2.42-16.92,4.84-25.83,7.39c1.53-6.81,14.87-11.49,25.57-8.44
		C314.63,474.16,314.72,474.51,314.8,474.86z"/>
	<path d="M462.66,426.28c2.73-0.05,5.43,2.85,5.45,5.86c0.02,2.98-2.83,5.62-6.05,5.61c-3.09-0.01-5.82-2.57-5.85-5.48
		C456.17,429.15,459.2,426.34,462.66,426.28z"/>
	<path d="M342.4,444.93c-1.77-9.29-2.21-17.66,3.94-24.91c0.54-0.63,1.57-0.85,2.37-1.26c0.14,0.8,0.55,1.68,0.37,2.4
		c-1.79,7.33-3.67,14.63-5.56,21.93C343.41,443.53,343.05,443.89,342.4,444.93z"/>
	<path d="M325.83,396.72c-3.67,7.11-13.88,9.94-25.01,7.09C303.84,401.24,322.52,395.83,325.83,396.72z"/>
	<path d="M388.04,432.85c0.06,3.16-2.64,6.53-5.22,6.52c-2.48-0.01-6.09-3.58-6.06-5.99c0.03-2.49,3-5.04,5.91-5.07
		C385.95,428.28,387.98,429.99,388.04,432.85z"/>
	<path d="M391.81,424.72c-0.64-2.63-1.15-4.73-1.66-6.83c0.38-0.26,0.76-0.52,1.15-0.79c1.57,1.41,3.38,2.64,4.61,4.3
		c0.81,1.09,1.09,2.84-1.21,3.37c-0.62,0.14-1.21,0.92-1.58,1.54c-1.83,3.05-2.65,3.25-5.49,1.14c-0.54-0.4-1.17-0.85-1.44-1.42
		c-0.48-0.99-0.71-2.09-1.05-3.15c1.19,0.04,2.43-0.09,3.56,0.19C389.68,423.33,390.57,424.04,391.81,424.72z"/>
	<path d="M387.27,491.81c-2.46,0.01-3.88-1.92-2.65-3.52c1.75-2.28,3.88-4.32,6.09-6.17c0.56-0.47,2.51-0.22,3,0.38
		c0.58,0.7,0.71,2.38,0.25,3.2C392.38,488.53,390.26,490.94,387.27,491.81z"/>
	<path d="M458.21,490.92c-2.39-0.11-6.84-4.66-6.78-7.06c0.05-1.86,1.08-3.24,3.01-2.6c3.07,1.02,5.57,2.97,6.59,6.21
		C461.65,489.42,460.24,491.01,458.21,490.92z"/>
	<path d="M327.91,397.67c7.17,5.31,13.73,11.25,19.81,18.56C342.97,415.25,329.74,402.94,327.91,397.67z"/>
	<path d="M284.75,409.65c-0.46,1.26-0.52,1.93-0.88,2.31c-2.22,2.32-4.46,4.63-6.83,6.81c-0.47,0.43-1.8,0.6-2.19,0.26
		c-0.5-0.43-0.89-1.87-0.57-2.23c2.44-2.86,5-5.63,7.71-8.24C282.29,408.28,283.78,409.25,284.75,409.65z"/>
	<path d="M355.06,505.41c3.54,0,7.08-0.13,10.6,0.09c0.89,0.06,1.7,1.24,2.55,1.9c-0.82,0.69-1.6,1.89-2.48,1.98
		c-2.73,0.26-5.55,0.42-8.23-0.04c-1.17-0.2-2.07-1.98-3.1-3.04C354.62,506.01,354.84,505.71,355.06,505.41z"/>
	<path d="M467.93,438.97c1.22,0.94,2.42,1.86,3.62,2.79c-1.01,0.99-1.88,2.2-3.06,2.89c-1.04,0.61-2.44,0.89-3.66,0.83
		c-1.01-0.05-2.51-0.59-2.82-1.32c-0.32-0.74,0.25-2.39,0.97-2.94C464.22,440.26,465.88,439.85,467.93,438.97z"/>
	<path d="M378.65,446.36c-0.56-0.12-2.03-0.17-3.18-0.8c-0.75-0.41-1.45-1.65-1.44-2.51c0.01-0.62,1.25-1.77,1.9-1.74
		c2.1,0.1,4.24,0.44,6.22,1.1c0.72,0.24,1.05,1.63,1.56,2.49c-0.83,0.49-1.63,1.07-2.51,1.42
		C380.7,446.53,380.04,446.36,378.65,446.36z"/>
	<path d="M469.84,467.33c-2.07-0.62-3.62-0.92-5-1.57c-0.64-0.3-1.34-1.3-1.32-1.96c0.02-0.67,0.84-1.82,1.42-1.89
		c1.86-0.21,3.83-0.32,5.61,0.13c0.89,0.23,2.22,2.06,1.99,2.65C472.11,465.81,470.71,466.55,469.84,467.33z"/>
	<path d="M376.7,469.02c-1.29-1.16-2.72-1.86-2.82-2.71c-0.1-0.85,0.92-2.23,1.81-2.72c1.34-0.72,2.97-0.97,4.51-1.2
		c0.66-0.1,1.83,0.14,2.01,0.55c0.3,0.68,0.31,2.03-0.13,2.41C380.53,466.67,378.73,467.68,376.7,469.02z"/>
	<path d="M270.02,463.37c5.99,4.27,11.63,8.92,15.91,15.05c-0.22,0.24-0.45,0.48-0.67,0.72c-5.3-5.02-10.6-10.04-15.9-15.06
		C269.58,463.85,269.8,463.61,270.02,463.37z"/>
	<path d="M449.44,424.16c-0.17-1.01-0.94-2.59-0.45-3.38c1.05-1.67,2.68-3.02,4.27-4.26c0.36-0.28,1.94,0.22,2.2,0.74
		C456.29,418.9,452.14,424.36,449.44,424.16z"/>
	<path d="M450.57,414.76c-1.24,1.72-2.33,3.53-3.74,5.02c-0.42,0.44-1.98,0.33-2.59-0.11c-0.43-0.31-0.46-1.79-0.1-2.44
		c0.84-1.52,1.94-2.92,3.09-4.23c0.36-0.42,1.39-0.73,1.8-0.51C449.59,412.79,449.86,413.64,450.57,414.76z"/>
	<path d="M397.08,413.13c1.06,1.12,2.4,2.15,3.19,3.49c0.62,1.06,0.6,2.51,0.75,3.8c0.02,0.21-0.66,0.77-0.79,0.7
		c-1.32-0.66-3.17-1.13-3.72-2.22c-0.73-1.44-0.44-3.4-0.53-5.14C395.97,413.64,396.43,413.49,397.08,413.13z"/>
	<path d="M401,411.92c0.25-0.29,0.87-1.01,1.49-1.73c1.42,1.97,2.92,3.9,4.16,5.98c0.14,0.24-1.08,1.82-1.81,1.93
		C403.02,418.4,401.06,415.43,401,411.92z"/>
	<path d="M461.25,422.49c-2.42,2.17-4.42,3.98-6.5,5.7c-0.08,0.07-1.29-0.77-1.44-1.33c-0.67-2.44,3.43-6.49,5.93-5.88
		C459.83,421.12,460.3,421.76,461.25,422.49z"/>
	<path d="M443.21,409.02c0.39,3.03,0.43,5.58-1.49,7.74c-0.45,0.51-1.4,1.02-1.93,0.87c-0.54-0.16-1.05-1.09-1.2-1.76
		C438.03,413.21,439.8,410.42,443.21,409.02z"/>
	<path d="M431.56,415.43c0.99-2.61,1.66-4.77,2.65-6.78c0.26-0.53,1.62-0.98,2.23-0.76c0.61,0.22,1.19,1.28,1.27,2.03
		C438.02,412.67,435.63,415.11,431.56,415.43z"/>
	<path d="M413.31,413.47c-1.47,1.17-2.46,2.56-3.22,2.44c-2.53-0.39-3.06-2.6-2.81-4.73c0.12-1,1.18-1.89,1.82-2.83
		C410.37,409.9,411.65,411.45,413.31,413.47z"/>
	<path d="M356.45,550.91c-3.74,0-7.48,0.04-11.22-0.01c-4.23-0.06-7.14-2.69-7.08-6.29c0.06-3.52,2.84-6.07,6.95-6.11
		c7.58-0.08,15.15-0.08,22.73,0c3.83,0.04,5.1,1.92,5.03,6.94c-0.06,4.07-1.36,5.45-5.2,5.47
		C363.92,550.92,360.18,550.91,356.45,550.91z M349.45,545c-0.01-0.44-0.02-0.88-0.03-1.32c-1.08-0.68-2.26-2-3.22-1.86
		c-1.01,0.15-2.31,1.59-2.57,2.68c-0.4,1.7,0.95,2.88,2.64,2.54C347.42,546.82,348.39,545.71,349.45,545z"/>
	<path d="M327.92,436.93c-5.6,1.54-10.73,4.99-17.06,3.59c-1.08-0.24-2.36,0.52-3.46,0.31c-0.84-0.16-1.53-1.12-2.28-1.72
		c0.77-0.79,1.89-2.4,2.27-2.24c4.26,1.77,7.94-1.55,12.02-1.17c2.78,0.26,5.61,0.05,8.42,0.05
		C327.86,436.14,327.89,436.54,327.92,436.93z"/>
	<path d="M309.26,434.72c-4.51,0.6-5.31-0.22-4.24-4.31c0.44-1.66,1.19-3.24,1.96-5.28C309.65,428.32,309.26,431.55,309.26,434.72z"
		/>
	<path d="M289.32,457.3c2.19-2.28,4.38-4.57,6.58-6.85c0.27,0.25,0.55,0.51,0.82,0.76c-1.25,3.14-3.66,5.24-6.54,6.92
		C289.9,457.86,289.61,457.58,289.32,457.3z"/>
	<path d="M288.18,419.9c2.31,2.37,4.62,4.73,6.93,7.1C291.42,426.31,288.07,422.82,288.18,419.9z"/>
	<path d="M301.3,419.71c-2.65-0.97-1.81-3.76-2.81-5.59c0.32-0.17,0.63-0.35,0.95-0.52c1,1.81,2,3.62,3,5.43
		C302.06,419.25,301.68,419.48,301.3,419.71z"/>
	<path d="M325.51,422.11c-1.98,1.8-3.96,3.6-5.94,5.4c-0.28-0.31-0.55-0.62-0.83-0.93c2.03-1.74,4.06-3.49,6.09-5.23
		C325.05,421.6,325.28,421.86,325.51,422.11z"/>
	<path d="M327.31,432.95c1.73-0.6,3.45-1.2,5.18-1.8c0.15,0.4,0.31,0.8,0.46,1.19c-1.69,0.7-3.38,1.39-5.07,2.09
		C327.68,433.94,327.49,433.44,327.31,432.95z"/>
	<path d="M320.9,451.34c1.9,1.71,3.8,3.42,5.7,5.12c-0.26,0.29-0.52,0.58-0.78,0.87c-1.85-1.74-3.7-3.48-5.54-5.22
		C320.49,451.85,320.7,451.6,320.9,451.34z"/>
	<path d="M314.14,458.61c0.6,1.86,1.21,3.73,1.81,5.59c-0.39,0.13-0.79,0.27-1.18,0.4c-0.67-1.84-1.34-3.68-2.01-5.52
		C313.22,458.92,313.68,458.76,314.14,458.61z"/>
	<path d="M314.47,414.05c-0.22,1.89-0.45,3.78-0.67,5.67c-0.42-0.04-0.84-0.09-1.27-0.13c0.16-1.9,0.33-3.8,0.49-5.69
		C313.5,413.95,313.99,414,314.47,414.05z"/>
	<path d="M301.3,464.12c0.33-1.65,0.66-3.3,0.99-4.95c0.47,0.09,0.95,0.18,1.42,0.28c-0.35,1.64-0.7,3.27-1.05,4.91
		C302.21,464.27,301.76,464.2,301.3,464.12z"/>
</g>
</svg>
