<?xml version="1.0" encoding="utf-8"?>
<!-- Generator: Adobe Illustrator 26.0.0, SVG Export Plug-In . SVG Version: 6.00 Build 0)  -->
<svg version="1.1" id="Layer_1" xmlns="http://www.w3.org/2000/svg" xmlns:xlink="http://www.w3.org/1999/xlink" x="0px" y="0px"
	 viewBox="0 0 595.28 841.89" style="enable-background:new 0 0 595.28 841.89;" xml:space="preserve">
<g>
	<path d="M256.22,435.4c-2.02,1.51-3.28,2.5-4.59,3.41c-5.72,4.01-11.97,5.07-18.3,2.11c-14.42-6.74-24.48-17.73-29.75-32.74
		c-2.5-7.11-0.55-13.72,4.95-18.83c6.65-6.17,13.63-11.97,20.49-17.9c3.27-2.83,6.75-5.43,9.89-8.39
		c6.64-6.26,14.68-9.21,23.49-10.57c3.77-0.58,7.53-1.22,11.28-1.9c5.69-1.03,10.73,0.26,14.57,4.61c2.67,3.03,4.84,6.51,7.26,9.76
		c5.51,7.4,10.74,15.05,16.66,22.11c5.58,6.66,8.84,6.66,14.38,0.03c5.96-7.14,11.23-14.86,16.79-22.33
		c2.42-3.25,4.62-6.71,7.31-9.73c3.35-3.76,7.79-5.43,12.85-4.61c6.77,1.09,13.55,2.2,20.25,3.63c5.12,1.09,9.65,3.6,13.67,7.01
		c9.38,7.95,18.77,15.89,28.15,23.84c0.97,0.82,1.92,1.67,2.84,2.55c8.43,8.1,9.91,15.63,4.71,26.13
		c-4.99,10.09-12.33,18.24-21.8,24.34c-10.16,6.54-17.47,6.11-27.02-1.24c-0.33-0.25-0.67-0.49-1.45-1.07
		c-0.32,2.47-0.71,4.57-0.85,6.7c-0.56,8.87,0.96,17.56,2.18,26.29c2.8,19.99,9.57,38.94,14.71,58.32c2.05,7.75,3.5,15.72,4.4,23.68
		c1.15,10.12-3.67,17.45-12.47,22.23c-8.63,4.68-18.08,6.71-27.66,8.07c-28.75,4.06-57.49,3.49-86.19-0.53
		c-8.98-1.26-17.86-3.1-26.32-6.54c-11.93-4.86-16.93-13.91-15.06-26.71c2.22-15.16,6.88-29.66,11.22-44.27
		c5.28-17.75,8.86-35.85,9.94-54.36C256.98,444.39,256.44,440.26,256.22,435.4z M249.15,419.67c-0.48-0.71-0.75-1.13-1.04-1.55
		c-3.08-4.49-2.51-9.36,1.43-12.11c3.91-2.73,8.73-1.62,11.9,2.76c7.6,10.49,11.39,22.28,11.61,35.15
		c0.33,19.08-3.88,37.53-8.49,55.86c-3.01,11.98-6.94,23.72-10.07,35.67c-1.45,5.54-2.04,11.31-2.89,17
		c-0.37,2.46,0.86,4.24,3.09,5.31c0.99,0.47,1.98,0.96,3.01,1.35c10.24,3.88,20.99,5.37,31.78,6.49c21.73,2.25,43.5,2.52,65.24,0.05
		c8.85-1.01,17.64-2.4,25.92-5.92c6.17-2.62,7.48-4.72,6.21-11.18c-1.53-7.8-3.24-15.58-5.24-23.27
		c-3.55-13.67-7.8-27.18-10.96-40.94c-2.71-11.78-4.85-23.74-5.06-35.93c-0.25-14.87,3.31-28.53,12.37-40.52
		c2.79-3.69,7.66-4.41,11.3-1.8c3.54,2.53,4.4,7.26,2.01,11.08c-0.48,0.77-1.02,1.51-1.65,2.43c1.77,1.59,3.41,3.18,5.17,4.63
		c3.04,2.51,3.49,2.57,6.96,0.49c6.61-3.97,11.68-9.5,15.6-16.08c3.4-5.72,3.27-6.53-1.77-10.83c-9.54-8.15-19.07-16.31-28.78-24.26
		c-2.09-1.71-4.78-3-7.4-3.69c-4.49-1.19-9.2-1.5-13.7-2.67c-3.27-0.85-4.87,0.4-6.54,2.93c-4.38,6.64-8.81,13.28-13.62,19.61
		c-3.37,4.43-7.1,8.69-11.2,12.44c-6.16,5.62-13.51,7.61-21.69,4.91c-4.88-1.61-9.01-4.58-12.11-8.54
		c-6.78-8.66-13.22-17.59-19.78-26.43c-1.11-1.49-2.04-3.13-3.23-4.55c-0.4-0.48-1.38-0.8-2.04-0.71c-2.85,0.38-5.67,1.05-8.52,1.39
		c-7.45,0.89-14.08,3.37-19.46,8.87c-2.54,2.59-5.54,4.73-8.32,7.09c-5.81,4.94-11.66,9.85-17.4,14.87
		c-3.33,2.91-3.41,3.64-1.41,7.62c0.83,1.66,1.78,3.28,2.86,4.8c3.86,5.45,8.42,10.2,14.3,13.51c1.41,0.8,2.97,1.94,4.68,0.53
		C244.52,423.6,246.82,421.63,249.15,419.67z"/>
</g>
</svg>
